<svg width="20" height="17" viewBox="0 0 20 17" fill="none" xmlns="http://www.w3.org/2000/svg">
<path d="M3.70007 2.44818C3.1782 2.27318 2.89382 1.70443 3.06882 1.18255C3.24382 0.660678 3.80945 0.376303 4.33445 0.548178L7.8657 1.7263C8.30007 0.991928 9.1032 0.498178 10.0188 0.498178C11.4001 0.498178 12.5188 1.61693 12.5188 2.99818C12.5188 3.09193 12.5126 3.18255 12.5032 3.27318L16.3344 4.5513C16.8594 4.7263 17.1407 5.29193 16.9657 5.81693C16.7907 6.34193 16.2251 6.62318 15.7001 6.44818L11.4657 5.03568C11.3251 5.13568 11.1751 5.22005 11.0157 5.29193V15.5013C11.0157 16.0544 10.5688 16.5013 10.0157 16.5013H4.0157C3.46257 16.5013 3.0157 16.0544 3.0157 15.5013C3.0157 14.9482 3.46257 14.5013 4.0157 14.5013H9.0157V5.29193C8.35945 5.00443 7.8532 4.44818 7.63445 3.76068L3.70007 2.44818ZM6.28132 9.49818L4.0157 5.61693L1.7532 9.49818H6.28132ZM4.01882 12.4982C2.0532 12.4982 0.418822 11.4357 0.0813221 10.0326C7.21216e-05 9.6888 0.112572 9.33568 0.290697 9.02943L3.2657 3.92943C3.42195 3.66068 3.70945 3.49818 4.01882 3.49818C4.3282 3.49818 4.6157 3.6638 4.77195 3.92943L7.74695 9.02943C7.92507 9.33568 8.03757 9.6888 7.95632 10.0326C7.61882 11.4326 5.98445 12.4982 4.01882 12.4982ZM15.9813 9.61693L13.7188 13.4982H18.2469L15.9844 9.61693H15.9813ZM19.9188 14.0326C19.5813 15.4357 17.9469 16.4982 15.9813 16.4982C14.0157 16.4982 12.3813 15.4357 12.0438 14.0326C11.9626 13.6888 12.0751 13.3357 12.2532 13.0294L15.2282 7.92943C15.3844 7.66068 15.6719 7.49818 15.9813 7.49818C16.2907 7.49818 16.5782 7.6638 16.7344 7.92943L19.7094 13.0294C19.8876 13.3357 20.0001 13.6888 19.9188 14.0326Z" fill="#2D9CFF"/>
</svg>
