<svg width="16" height="17" viewBox="0 0 16 17" fill="none" xmlns="http://www.w3.org/2000/svg">
<path d="M8 16.6016C5.87827 16.6016 3.84344 15.7587 2.34315 14.2584C0.842855 12.7581 0 10.7233 0 8.60156C0 6.47983 0.842855 4.445 2.34315 2.94471C3.84344 1.44442 5.87827 0.601563 8 0.601562C10.1217 0.601563 12.1566 1.44442 13.6569 2.94471C15.1571 4.445 16 6.47983 16 8.60156C16 10.7233 15.1571 12.7581 13.6569 14.2584C12.1566 15.7587 10.1217 16.6016 8 16.6016ZM11.6875 5.15469C11.3531 4.91094 10.8844 4.98594 10.6406 5.32031L6.90938 10.4516L5.28125 8.82344C4.9875 8.52969 4.5125 8.52969 4.22188 8.82344C3.93125 9.11719 3.92813 9.59219 4.22188 9.88281L6.47188 12.1328C6.62813 12.2891 6.84062 12.3672 7.05937 12.3516C7.27812 12.3359 7.47812 12.2234 7.60625 12.0453L11.8531 6.20156C12.0969 5.86719 12.0219 5.39844 11.6875 5.15469Z" fill="#2D9CFF"/>
</svg>
