<svg width="121" height="18" viewBox="0 0 121 18" fill="none" xmlns="http://www.w3.org/2000/svg">
<path d="M14.0108 1.9921C15.0819 1.9921 16.0112 2.1581 16.7988 2.49012C17.6021 2.80632 18.2085 3.24901 18.618 3.81818C19.0433 4.37154 19.256 5.01186 19.256 5.73913C19.256 6.1502 19.2008 6.52964 19.0906 6.87747C18.6338 8.47431 17.3185 9.48617 15.1449 9.91304C15.9009 10.1344 16.4995 10.5059 16.9405 11.0277C17.3815 11.5336 17.6021 12.166 17.6021 12.9249C17.6021 13.2727 17.5391 13.6838 17.4131 14.1581C17.0665 15.3913 16.3656 16.3083 15.3103 16.9091C14.2707 17.4941 12.79 17.7866 10.8684 17.7866H1.03959C0.708808 17.7866 0.456787 17.7312 0.283523 17.6206C0.0945077 17.5099 0 17.3597 0 17.17C0 17.0751 0.0236269 16.9723 0.0708808 16.8617C0.133886 16.6877 0.236269 16.5534 0.378031 16.4585C0.519793 16.3636 0.606425 16.3083 0.637927 16.2925C0.889948 16.1344 1.09471 15.9763 1.25223 15.8182C1.40974 15.6443 1.54363 15.3676 1.65389 14.9881L4.53637 4.7668C4.59938 4.56126 4.63088 4.36364 4.63088 4.17391C4.63088 4 4.59938 3.85771 4.53637 3.74704C4.48912 3.62055 4.41824 3.47826 4.32373 3.32016C4.18197 3.11462 4.11109 2.94862 4.11109 2.82213C4.11109 2.7747 4.12684 2.68775 4.15834 2.56127C4.22135 2.35573 4.35523 2.21344 4.56 2.13439C4.78052 2.03953 5.11129 1.9921 5.55233 1.9921H14.0108ZM12.9476 6.33202C13.0578 5.98419 13.113 5.66008 13.113 5.35968C13.113 4.53755 12.6483 4.12648 11.719 4.12648H10.6557L9.40352 8.56126H10.4431C11.1047 8.56126 11.6245 8.40316 12.0025 8.08696C12.3963 7.75494 12.7113 7.16996 12.9476 6.33202ZM11.2228 13.3043C11.3331 12.9249 11.3882 12.5771 11.3882 12.2609C11.3882 11.4071 10.8999 10.9802 9.92331 10.9802H8.74197L7.39523 15.6522H8.60021C9.27751 15.6522 9.82093 15.4862 10.2305 15.1542C10.64 14.8063 10.9708 14.1897 11.2228 13.3043Z" fill="white"/>
<path d="M30.1891 5.24111C31.0712 5.24111 31.7721 5.50988 32.2919 6.04743C32.8275 6.58498 33.0952 7.24901 33.0952 8.03953C33.0952 8.33992 33.0637 8.6166 33.0007 8.86957C32.8432 9.51779 32.544 10.0158 32.1029 10.3636C31.6619 10.7115 31.1342 10.8854 30.5199 10.8854C29.9214 10.8854 29.4646 10.7431 29.1495 10.4585C28.8503 10.1739 28.5825 9.79447 28.3462 9.32016C28.2202 9.05138 28.1021 8.85375 27.9918 8.72727C27.8816 8.60079 27.7556 8.53755 27.6138 8.53755C27.4563 8.53755 27.3145 8.60079 27.1885 8.72727C27.0783 8.85375 26.9759 9.0751 26.8814 9.3913L25.0621 15.3202C25.0306 15.3992 25.0148 15.5178 25.0148 15.6759C25.0148 15.8814 25.07 16.0553 25.1802 16.1976C25.3062 16.3241 25.4716 16.4506 25.6764 16.5771C25.8654 16.7036 25.9914 16.8063 26.0544 16.8854C26.1174 16.9644 26.1411 17.0672 26.1253 17.1937C26.0938 17.3992 25.9757 17.5494 25.7709 17.6443C25.5819 17.7391 25.2511 17.7866 24.7786 17.7866H18.7301C18.3205 17.7866 18.0291 17.7233 17.8559 17.5968C17.6669 17.4545 17.596 17.2727 17.6432 17.0514C17.7062 16.8617 17.8716 16.6957 18.1394 16.5534C18.3757 16.4269 18.5726 16.2767 18.7301 16.1028C18.8876 15.9289 19.0215 15.6522 19.1317 15.2727L21.2345 8.41897C21.266 8.33992 21.2818 8.22925 21.2818 8.08696C21.2818 7.91304 21.2424 7.77866 21.1636 7.68379C21.1006 7.58893 20.9904 7.47036 20.8329 7.32806C20.6754 7.20158 20.5651 7.09091 20.5021 6.99605C20.4391 6.90119 20.4312 6.7747 20.4785 6.6166C20.573 6.25296 21.0691 5.93676 21.967 5.66798C22.8648 5.3834 23.802 5.24111 24.7786 5.24111C25.4244 5.24111 25.9599 5.3913 26.3852 5.6917C26.8105 5.97628 27.0861 6.38735 27.2121 6.9249C27.9682 5.80237 28.9605 5.24111 30.1891 5.24111Z" fill="white"/>
<path d="M40.2441 5.24111C42.0555 5.24111 43.5046 5.58103 44.5914 6.26087C45.6783 6.9249 46.2217 7.94466 46.2217 9.32016C46.2217 9.8419 46.1272 10.4348 45.9381 11.0988L44.9694 14.3715C44.9537 14.4348 44.9458 14.5138 44.9458 14.6087C44.9458 14.8617 45.0482 14.9881 45.253 14.9881C45.442 14.9881 45.5995 14.9091 45.7255 14.751C45.8673 14.5771 45.9618 14.4901 46.009 14.4901C46.0878 14.4901 46.1508 14.5455 46.198 14.6561C46.261 14.7668 46.2926 14.8933 46.2926 15.0356C46.3083 15.4625 46.1429 15.8972 45.7964 16.3399C45.4656 16.7826 45.0167 17.1462 44.4496 17.4308C43.8826 17.7154 43.2604 17.8577 42.5831 17.8577C41.7641 17.8577 41.0631 17.7075 40.4803 17.4071C39.8975 17.1067 39.4959 16.664 39.2754 16.0791C38.8028 16.6482 38.2436 17.0909 37.5978 17.4071C36.952 17.7075 36.259 17.8577 35.5187 17.8577C34.6838 17.8577 33.9829 17.6996 33.4159 17.3834C32.8488 17.0514 32.4235 16.6324 32.14 16.1265C31.8722 15.6047 31.7384 15.0593 31.7384 14.4901C31.7384 14.2372 31.762 13.9921 31.8092 13.7549C32.0613 12.664 32.6047 11.8419 33.4395 11.2885C34.2901 10.7352 35.2982 10.4585 36.4637 10.4585C37.7711 10.4585 39.0548 10.664 40.3149 11.0751L40.9056 9.50988C41.1104 8.84585 41.2128 8.33202 41.2128 7.96838C41.197 7.58893 41.071 7.30435 40.8347 7.11462C40.5985 6.9249 40.2362 6.83004 39.7479 6.83004C39.8424 7.083 39.8897 7.34387 39.8897 7.61265C39.8897 8.19763 39.6691 8.70356 39.2281 9.13043C38.7871 9.55731 38.157 9.77075 37.3379 9.77075C36.5661 9.77075 35.9597 9.60474 35.5187 9.27273C35.0934 8.9249 34.8807 8.49802 34.8807 7.99209C34.8807 7.20158 35.3218 6.54545 36.2038 6.02372C37.0859 5.50198 38.4327 5.24111 40.2441 5.24111ZM38.9209 12.4269C38.4799 12.4269 38.1176 12.6008 37.8341 12.9486C37.5663 13.2806 37.4325 13.6443 37.4325 14.0395C37.4325 14.2925 37.4876 14.498 37.5978 14.6561C37.7239 14.8142 37.8971 14.8933 38.1176 14.8933C38.3224 14.8933 38.5429 14.8142 38.7792 14.6561C39.0312 14.4822 39.2123 14.2292 39.3226 13.8972L39.8188 12.498C39.551 12.4506 39.2517 12.4269 38.9209 12.4269Z" fill="white"/>
<path d="M59.8378 5.24111C60.3576 5.24111 60.838 5.36759 61.279 5.62055C61.7358 5.87352 62.0902 6.19763 62.3423 6.59289C62.61 6.98814 62.7439 7.39921 62.7439 7.82609C62.7439 8.42688 62.5785 8.94862 62.2477 9.3913C61.917 9.81818 61.3893 10.2451 60.6647 10.6719L55.6558 13.6601C56.1284 14.1976 56.593 14.4664 57.0498 14.4664C57.4121 14.4664 57.735 14.332 58.0185 14.0632C58.302 13.7945 58.625 13.4071 58.9872 12.9012C59.2077 12.6008 59.3731 12.3874 59.4834 12.2609C59.5937 12.1344 59.7039 12.0711 59.8142 12.0711C60.0977 12.0711 60.4048 12.1739 60.7356 12.3794C61.0821 12.585 61.3736 12.8854 61.6098 13.2806C61.8618 13.6759 61.9879 14.1502 61.9879 14.7036C61.9879 15.2727 61.8382 15.8024 61.5389 16.2925C61.2554 16.7668 60.8459 17.1462 60.3103 17.4308C59.7905 17.7154 59.1762 17.8577 58.4674 17.8577C57.7744 17.8577 57.1916 17.7391 56.719 17.502C56.2465 17.249 55.8764 16.9723 55.6086 16.6719C55.3566 16.3715 55.1045 16.0158 54.8525 15.6047C54.6478 15.2411 54.4902 15.0593 54.38 15.0593C54.2855 15.0593 54.1831 15.1146 54.0728 15.2253C53.9783 15.336 53.8366 15.5257 53.6475 15.7945C53.2223 16.4111 52.7812 16.9091 52.3244 17.2885C51.8834 17.668 51.3006 17.8577 50.576 17.8577C49.883 17.8577 49.2529 17.7312 48.6859 17.4783C48.1346 17.2253 47.6936 16.8933 47.3628 16.4822C47.0478 16.0553 46.8902 15.5968 46.8902 15.1067C46.8902 14.2372 47.4652 13.4387 48.615 12.7115L54.6871 8.98814C54.4194 8.65613 54.1831 8.41897 53.9783 8.27668C53.7736 8.13439 53.553 8.06324 53.3168 8.06324C53.0175 8.06324 52.7576 8.17391 52.5371 8.39526C52.3323 8.60079 52.1197 8.89328 51.8992 9.27273C51.7416 9.52569 51.6077 9.71542 51.4975 9.8419C51.403 9.96838 51.2927 10.0316 51.1667 10.0316C50.6784 10.0316 50.2531 9.85771 49.8909 9.50988C49.5286 9.16206 49.3474 8.68775 49.3474 8.08696C49.3474 7.59684 49.4656 7.13834 49.7018 6.71146C49.9539 6.26877 50.3004 5.91304 50.7414 5.64427C51.1982 5.37549 51.7259 5.24111 52.3244 5.24111C53.1908 5.24111 53.8602 5.45455 54.3327 5.88142C54.821 6.29249 55.2542 6.80632 55.6322 7.42293C55.8527 7.77075 56.0024 7.94466 56.0811 7.94466C56.1599 7.94466 56.2465 7.89723 56.341 7.80237C56.4513 7.6917 56.5379 7.58893 56.6009 7.49407C56.6797 7.3834 56.7427 7.30435 56.7899 7.25692C57.2625 6.64032 57.7192 6.1502 58.1603 5.78656C58.6013 5.42292 59.1605 5.24111 59.8378 5.24111Z" fill="white"/>
<path d="M69.1258 5.24111C70.0393 5.24111 70.7088 5.41502 71.1341 5.76285C71.5593 6.11067 71.772 6.58498 71.772 7.18577C71.772 7.54941 71.7169 7.89723 71.6066 8.22925L69.4329 15.3202C69.3857 15.5099 69.362 15.6759 69.362 15.8182C69.362 16.0237 69.4014 16.1897 69.4802 16.3162C69.5589 16.4269 69.6692 16.5375 69.811 16.6482C69.9212 16.7589 70 16.8538 70.0472 16.9328C70.0945 16.996 70.1023 17.083 70.0708 17.1937C69.9921 17.3992 69.8346 17.5494 69.5983 17.6443C69.362 17.7391 68.9998 17.7866 68.5115 17.7866H63.1245C62.715 17.7866 62.4157 17.7233 62.2267 17.5968C62.0377 17.4545 61.9747 17.2727 62.0377 17.0514C62.1007 16.8617 62.2661 16.6957 62.5339 16.5534C62.7701 16.4269 62.967 16.2767 63.1245 16.1028C63.282 15.9289 63.4159 15.6522 63.5262 15.2727L65.5817 8.41897C65.629 8.27668 65.6526 8.1581 65.6526 8.06324C65.6526 7.88933 65.6132 7.75494 65.5345 7.66008C65.4557 7.54941 65.3376 7.43874 65.1801 7.32806C65.0226 7.20158 64.9123 7.09091 64.8493 6.99605C64.7863 6.90119 64.7784 6.7747 64.8257 6.6166C64.9202 6.25296 65.4163 5.93676 66.3142 5.66798C67.212 5.3834 68.1492 5.24111 69.1258 5.24111ZM70.7088 0C71.3231 0 71.835 0.205534 72.2445 0.616601C72.6541 1.01186 72.8588 1.50198 72.8588 2.08696C72.8588 2.49802 72.7486 2.90119 72.5281 3.29644C72.3233 3.6917 72.024 4.01581 71.6302 4.26877C71.2522 4.50593 70.8269 4.62451 70.3544 4.62451C69.7558 4.62451 69.2518 4.42688 68.8422 4.03162C68.4485 3.62055 68.2437 3.11462 68.2279 2.51383C68.2279 2.11858 68.3303 1.73123 68.5351 1.35178C68.7399 0.956522 69.0313 0.632411 69.4093 0.379447C69.7873 0.126482 70.2205 0 70.7088 0Z" fill="white"/>
<path d="M86.8746 15.3202C86.8273 15.5099 86.8037 15.6759 86.8037 15.8182C86.8037 16.0237 86.8431 16.1897 86.9218 16.3162C87.0006 16.4269 87.1109 16.5375 87.2526 16.6482C87.3629 16.7589 87.4416 16.8538 87.4889 16.9328C87.5361 16.996 87.544 17.083 87.5125 17.1937C87.4338 17.3992 87.2762 17.5494 87.04 17.6443C86.8037 17.7391 86.4414 17.7866 85.9531 17.7866H80.5662C80.1567 17.7866 79.8574 17.7233 79.6684 17.5968C79.4793 17.4545 79.4164 17.2727 79.4794 17.0514C79.5424 16.8617 79.7077 16.6957 79.9755 16.5534C80.2118 16.4269 80.4087 16.2767 80.5662 16.1028C80.7237 15.9289 80.8576 15.6522 80.9678 15.2727L83.2833 7.63636H80.2354L77.8963 15.3202C77.8491 15.5099 77.8255 15.6759 77.8255 15.8182C77.8255 16.0237 77.8648 16.1897 77.9436 16.3162C78.0224 16.4269 78.1326 16.5375 78.2744 16.6482C78.3846 16.7589 78.4634 16.8538 78.5106 16.9328C78.5579 16.996 78.5658 17.083 78.5343 17.1937C78.4555 17.3992 78.298 17.5494 78.0617 17.6443C77.8255 17.7391 77.4632 17.7866 76.9749 17.7866H71.588C71.1784 17.7866 70.8792 17.7233 70.6901 17.5968C70.5011 17.4545 70.4381 17.2727 70.5011 17.0514C70.5641 16.8617 70.7295 16.6957 70.9973 16.5534C71.2336 16.4269 71.4304 16.2767 71.588 16.1028C71.7455 15.9289 71.8793 15.6522 71.9896 15.2727L73.8325 9.20158C73.9113 8.96443 73.9507 8.71937 73.9507 8.4664C73.9507 8.1502 73.8798 7.90514 73.738 7.73123C73.612 7.5415 73.4151 7.33597 73.1473 7.11462C72.9741 6.97233 72.8402 6.85375 72.7457 6.75889C72.6669 6.64822 72.6275 6.52174 72.6275 6.37945C72.6118 6.07905 72.7142 5.86561 72.9347 5.73913C73.171 5.61265 73.612 5.54941 74.2578 5.54941H74.8957C74.754 5.13834 74.6831 4.72727 74.6831 4.31621C74.6831 3.85771 74.754 3.46245 74.8957 3.13043C75.2265 2.24506 75.8408 1.54941 76.7386 1.04348C77.6365 0.52174 78.8257 0.26087 80.3063 0.26087C81.6924 0.26087 82.984 0.553361 84.1811 1.13834C84.5591 0.885376 85.1183 0.679842 85.8586 0.521739C86.6147 0.347827 87.355 0.26087 88.0796 0.26087C88.9931 0.26087 89.6626 0.434784 90.0878 0.78261C90.5289 1.13044 90.7494 1.60474 90.7494 2.20553C90.7494 2.55336 90.6943 2.89328 90.584 3.2253L86.8746 15.3202ZM83.9212 5.54941L84.4646 3.74704C83.4408 3.01976 82.543 2.65613 81.7712 2.65613C80.9206 2.65613 80.3772 3.00395 80.1409 3.6996C80.0779 3.88933 80.0464 4.11067 80.0464 4.36364C80.0464 4.69565 80.1173 4.98024 80.259 5.21739C80.4166 5.43874 80.6213 5.54941 80.8733 5.54941H83.9212Z" fill="white"/>
<path d="M98.3359 5.24111C100.478 5.24111 102.053 5.67589 103.061 6.54545C104.085 7.41502 104.597 8.55336 104.597 9.96047C104.597 10.4348 104.534 10.9644 104.408 11.5494C104.109 12.8458 103.55 13.9842 102.73 14.9644C101.911 15.9289 100.903 16.6798 99.7062 17.2174C98.5249 17.7391 97.2411 18 95.855 18C93.6656 18 92.0432 17.5652 90.9879 16.6957C89.9483 15.8103 89.4285 14.6403 89.4285 13.1858C89.4285 12.6957 89.4915 12.1502 89.6175 11.5494C89.9168 10.3162 90.4838 9.2253 91.3187 8.27668C92.1692 7.31225 93.2009 6.56917 94.4138 6.04743C95.6424 5.50988 96.9498 5.24111 98.3359 5.24111ZM98.265 7.35178C97.9342 7.35178 97.5798 7.65217 97.2018 8.25296C96.8395 8.83794 96.4063 9.95257 95.9023 11.5968C95.3982 13.2411 95.1462 14.3953 95.1462 15.0593C95.1462 15.4071 95.2013 15.6443 95.3116 15.7708C95.4219 15.8814 95.5715 15.9368 95.7605 15.9368C96.0913 15.9684 96.43 15.6838 96.7765 15.083C97.1388 14.4822 97.5877 13.3123 98.1232 11.5731C98.6115 10.0395 98.8557 8.9249 98.8557 8.22925C98.8557 7.89723 98.8005 7.66798 98.6903 7.5415C98.5958 7.41502 98.454 7.35178 98.265 7.35178Z" fill="white"/>
<path d="M119.322 14.5138C119.291 14.5771 119.275 14.6719 119.275 14.7984C119.275 14.9091 119.299 14.996 119.346 15.0593C119.409 15.1225 119.488 15.1542 119.582 15.1542C119.771 15.1542 119.929 15.0751 120.055 14.917C120.197 14.7431 120.291 14.6561 120.338 14.6561C120.417 14.6561 120.48 14.7115 120.527 14.8221C120.575 14.917 120.598 15.0356 120.598 15.1779C120.614 15.6364 120.464 16.087 120.149 16.5296C119.834 16.9565 119.37 17.3123 118.755 17.5968C118.157 17.8656 117.432 18 116.582 18C115.542 18 114.715 17.7628 114.101 17.2885C113.487 16.7984 113.172 16.1502 113.156 15.3439C113.156 14.7589 113.298 14.1028 113.581 13.3755L114.881 9.96047C114.959 9.75494 114.999 9.58893 114.999 9.46245C114.999 9.25692 114.928 9.09881 114.786 8.98814C114.66 8.86166 114.503 8.79842 114.314 8.79842C113.967 8.79842 113.636 8.96443 113.321 9.29644C113.006 9.61265 112.778 10.0079 112.636 10.4822L111.171 15.3202C111.108 15.4941 111.077 15.6601 111.077 15.8182C111.077 16.0079 111.116 16.166 111.195 16.2925C111.274 16.4032 111.384 16.5217 111.526 16.6482C111.636 16.7431 111.715 16.83 111.762 16.9091C111.809 16.9881 111.817 17.083 111.785 17.1937C111.722 17.3992 111.573 17.5494 111.337 17.6443C111.1 17.7391 110.73 17.7866 110.226 17.7866H104.839C104.43 17.7866 104.138 17.7233 103.965 17.5968C103.776 17.4545 103.705 17.2727 103.752 17.0514C103.815 16.8617 103.981 16.6957 104.249 16.5534C104.485 16.4269 104.682 16.2767 104.839 16.1028C104.997 15.9289 105.131 15.6522 105.241 15.2727L107.344 8.41897C107.375 8.33992 107.391 8.22925 107.391 8.08696C107.391 7.91304 107.352 7.77866 107.273 7.68379C107.21 7.58893 107.099 7.47036 106.942 7.32806C106.784 7.20158 106.674 7.09091 106.611 6.99605C106.548 6.90119 106.54 6.7747 106.588 6.6166C106.682 6.25296 107.178 5.93676 108.076 5.66798C108.974 5.3834 109.911 5.24111 110.888 5.24111C111.675 5.24111 112.297 5.46245 112.754 5.90514C113.211 6.33202 113.416 6.93281 113.368 7.70751C114.014 6.7747 114.699 6.13439 115.424 5.78656C116.149 5.42292 116.936 5.24111 117.787 5.24111C118.748 5.24111 119.519 5.5336 120.102 6.11858C120.701 6.70356 121 7.46245 121 8.39526C121 8.88538 120.921 9.36759 120.764 9.8419L119.322 14.5138Z" fill="white"/>
</svg>
