<svg width="520" height="195" viewBox="0 0 520 195" fill="none" xmlns="http://www.w3.org/2000/svg">
<path d="M195 97.5002C195 120.577 186.815 142.905 171.901 160.515C156.986 178.124 136.309 189.872 113.547 193.67C90.7856 197.469 67.4144 193.07 47.5905 181.258C27.7666 169.445 12.7752 150.984 5.28247 129.157C-2.21023 107.331 -1.71844 83.5547 6.67036 62.0569C15.0592 40.5591 30.8012 22.7336 51.0966 11.7507C71.392 0.767823 94.925 -2.66043 117.51 2.07566C140.096 6.81176 160.269 19.4052 174.443 37.6161L151.711 55.3082C141.725 42.4775 127.511 33.6046 111.599 30.2678C95.6858 26.9309 79.1053 29.3463 64.8059 37.0844C50.5066 44.8225 39.4154 57.3817 33.505 72.5282C27.5945 87.6747 27.248 104.427 32.5271 119.805C37.8062 135.183 48.3686 148.19 62.3357 156.512C76.3029 164.835 92.7693 167.934 108.806 165.258C124.844 162.582 139.412 154.304 149.92 141.898C160.428 129.491 166.195 113.759 166.195 97.5002H195Z" fill="white"/>
<path d="M184 55.5002H151.5L173.5 36.5002C175 36.5002 184 55.5002 184 55.5002Z" fill="white"/>
<path d="M158 68.5002H177V122.5H158V68.5002Z" fill="white"/>
<path d="M141 104.5V85.5002H195V104.5H141Z" fill="white"/>
<path d="M171 91.5002H195V178.5H171V91.5002Z" fill="white"/>
<path d="M59.5 70.5002V161.5L92.5 167.5V62.2777L118 77.0002V117.319L136.5 128V156.5L144.5 150V122.47L125.5 111.5V70.5002L92.5 51.4477L59.5 70.5002Z" fill="white"/>
<path d="M108 94.9643L102 91.5002V79.5361L108 83.0002V94.9643Z" fill="white"/>
<path d="M108 119.964L102 116.5V104.536L108 108V119.964Z" fill="white"/>
<path d="M108 144.964L102 141.5V129.536L108 133V144.964Z" fill="white"/>
<path d="M252.024 111.236C247.864 111.236 244.184 110.404 240.984 108.74C237.848 107.076 235.384 104.74 233.592 101.732C231.864 98.6602 231 95.1402 231 91.1722V62.5642C231 58.5962 231.864 55.1082 233.592 52.1002C235.384 49.0282 237.848 46.6602 240.984 44.9962C244.184 43.3322 247.864 42.5002 252.024 42.5002C256.184 42.5002 259.864 43.3322 263.064 44.9962C266.264 46.5962 268.728 48.8682 270.456 51.8122C272.248 54.7562 273.144 58.1162 273.144 61.8922V64.1002C273.144 64.4202 273.016 64.7082 272.76 64.9642C272.568 65.1562 272.312 65.2522 271.992 65.2522H263.16C262.84 65.2522 262.552 65.1562 262.296 64.9642C262.104 64.7082 262.008 64.4202 262.008 64.1002V61.8922C262.008 59.0122 261.08 56.6762 259.224 54.8842C257.432 53.0282 255.032 52.1002 252.024 52.1002C249.08 52.1002 246.68 53.0602 244.824 54.9802C243.032 56.8362 242.136 59.3002 242.136 62.3722V91.3642C242.136 94.4362 243.064 96.9322 244.92 98.8522C246.84 100.708 249.304 101.636 252.312 101.636C255.256 101.636 257.592 100.804 259.32 99.1402C261.112 97.4122 262.008 95.0762 262.008 92.1322V84.5482C262.008 84.2282 261.848 84.0682 261.528 84.0682H252.792C252.472 84.0682 252.184 83.9722 251.928 83.7802C251.736 83.5242 251.64 83.2362 251.64 82.9162V75.9082C251.64 75.5882 251.736 75.3322 251.928 75.1402C252.184 74.8842 252.472 74.7562 252.792 74.7562H271.992C272.312 74.7562 272.568 74.8842 272.76 75.1402C273.016 75.3322 273.144 75.5882 273.144 75.9082V90.8842C273.144 97.2202 271.224 102.212 267.384 105.86C263.544 109.444 258.424 111.236 252.024 111.236Z" fill="white"/>
<path d="M342.485 43.2682C342.805 43.2682 343.061 43.3962 343.253 43.6522C343.509 43.8442 343.637 44.1002 343.637 44.4202V51.8122C343.637 52.1322 343.509 52.4202 343.253 52.6762C343.061 52.8682 342.805 52.9642 342.485 52.9642H327.605C327.285 52.9642 327.125 53.1242 327.125 53.4442V109.316C327.125 109.636 326.997 109.924 326.741 110.18C326.549 110.372 326.293 110.468 325.973 110.468H317.141C316.821 110.468 316.533 110.372 316.277 110.18C316.085 109.924 315.989 109.636 315.989 109.316V53.4442C315.989 53.1242 315.829 52.9642 315.509 52.9642H301.205C300.885 52.9642 300.597 52.8682 300.341 52.6762C300.149 52.4202 300.053 52.1322 300.053 51.8122V44.4202C300.053 44.1002 300.149 43.8442 300.341 43.6522C300.597 43.3962 300.885 43.2682 301.205 43.2682H342.485Z" fill="white"/>
<path d="M369.781 111.332C365.557 111.332 361.813 110.468 358.549 108.74C355.349 107.012 352.853 104.58 351.061 101.444C349.333 98.2442 348.469 94.5642 348.469 90.4042V63.3322C348.469 59.2362 349.333 55.6202 351.061 52.4842C352.853 49.2842 355.349 46.8202 358.549 45.0922C361.813 43.3642 365.557 42.5002 369.781 42.5002C374.069 42.5002 377.813 43.3642 381.013 45.0922C384.277 46.8202 386.805 49.2842 388.597 52.4842C390.389 55.6202 391.285 59.2362 391.285 63.3322V90.4042C391.285 94.5642 390.389 98.2442 388.597 101.444C386.805 104.58 384.277 107.012 381.013 108.74C377.813 110.468 374.069 111.332 369.781 111.332ZM369.781 101.732C372.917 101.732 375.413 100.74 377.269 98.7562C379.189 96.7082 380.149 94.0842 380.149 90.8842V63.0442C380.149 59.7802 379.189 57.1562 377.269 55.1722C375.413 53.1242 372.917 52.1002 369.781 52.1002C366.709 52.1002 364.245 53.1242 362.389 55.1722C360.533 57.1562 359.605 59.7802 359.605 63.0442V90.8842C359.605 94.0842 360.533 96.7082 362.389 98.7562C364.245 100.74 366.709 101.732 369.781 101.732Z" fill="white"/>
<path d="M414.143 110.468C413.503 110.468 413.087 110.148 412.895 109.508L397.727 44.5162V44.1322C397.727 43.5562 398.079 43.2682 398.783 43.2682H407.999C408.703 43.2682 409.119 43.6202 409.247 44.3242L418.175 86.2762C418.239 86.4682 418.335 86.5642 418.463 86.5642C418.591 86.5642 418.687 86.4362 418.751 86.1802L427.007 44.3242C427.071 43.6202 427.487 43.2682 428.255 43.2682H436.607C437.311 43.2682 437.727 43.6202 437.855 44.3242L446.783 86.2762C446.847 86.5322 446.943 86.6602 447.071 86.6602C447.199 86.6602 447.295 86.5322 447.359 86.2762L455.807 44.3242C455.935 43.6202 456.351 43.2682 457.055 43.2682H465.887C466.783 43.2682 467.135 43.6842 466.943 44.5162L452.639 109.412C452.511 110.116 452.095 110.468 451.391 110.468H442.751C442.047 110.468 441.631 110.116 441.503 109.412L432.671 66.1162C432.607 65.9242 432.511 65.8282 432.383 65.8282C432.255 65.8282 432.159 65.9242 432.095 66.1162L423.743 109.412C423.679 110.116 423.263 110.468 422.495 110.468H414.143Z" fill="white"/>
<path d="M508.279 44.4202C508.279 44.1002 508.375 43.8442 508.567 43.6522C508.823 43.3962 509.111 43.2682 509.431 43.2682H518.263C518.583 43.2682 518.839 43.3962 519.031 43.6522C519.287 43.8442 519.415 44.1002 519.415 44.4202V109.316C519.415 109.636 519.287 109.924 519.031 110.18C518.839 110.372 518.583 110.468 518.263 110.468H508.951C508.375 110.468 507.927 110.18 507.607 109.604L486.679 66.5962C486.551 66.4042 486.423 66.3402 486.295 66.4042C486.167 66.4042 486.103 66.5322 486.103 66.7882L486.199 109.316C486.199 109.636 486.071 109.924 485.815 110.18C485.623 110.372 485.367 110.468 485.047 110.468H476.215C475.895 110.468 475.607 110.372 475.351 110.18C475.159 109.924 475.063 109.636 475.063 109.316V44.4202C475.063 44.1002 475.159 43.8442 475.351 43.6522C475.607 43.3962 475.895 43.2682 476.215 43.2682H485.431C486.071 43.2682 486.519 43.5562 486.775 44.1322L507.799 87.3322C507.927 87.5242 508.055 87.6202 508.183 87.6202C508.311 87.5562 508.375 87.3962 508.375 87.1402L508.279 44.4202Z" fill="white"/>
<path d="M245.56 127.948C245.709 127.743 245.888 127.64 246.097 127.64H248.427C248.725 127.64 248.875 127.787 248.875 128.08V152.584C248.875 152.878 248.725 153.024 248.427 153.024H246.142C245.843 153.024 245.694 152.878 245.694 152.584V133.667C245.694 133.579 245.664 133.535 245.604 133.535C245.545 133.506 245.5 133.535 245.47 133.623L240.721 141.322C240.572 141.527 240.393 141.63 240.184 141.63H239.736C239.527 141.63 239.347 141.527 239.198 141.322L234.405 133.667C234.375 133.579 234.33 133.55 234.27 133.579C234.211 133.579 234.181 133.623 234.181 133.711V152.584C234.181 152.878 234.031 153.024 233.733 153.024H231.448C231.149 153.024 231 152.878 231 152.584V128.08C231 127.787 231.149 127.64 231.448 127.64H233.733C233.942 127.64 234.121 127.743 234.27 127.948L239.781 137.143C239.81 137.172 239.855 137.187 239.915 137.187C239.975 137.187 240.019 137.172 240.049 137.143L245.56 127.948Z" fill="white"/>
<path d="M269.724 129.972C269.724 130.265 269.574 130.412 269.276 130.412H257.897C257.777 130.412 257.718 130.47 257.718 130.588V138.727C257.718 138.844 257.777 138.902 257.897 138.902H265.423C265.722 138.902 265.871 139.049 265.871 139.342V141.234C265.871 141.527 265.722 141.674 265.423 141.674H257.897C257.777 141.674 257.718 141.733 257.718 141.85V150.121C257.718 150.238 257.777 150.297 257.897 150.297H269.276C269.574 150.297 269.724 150.443 269.724 150.737V152.584C269.724 152.878 269.574 153.024 269.276 153.024H254.985C254.686 153.024 254.537 152.878 254.537 152.584V128.124C254.537 127.831 254.686 127.684 254.985 127.684H269.276C269.574 127.684 269.724 127.831 269.724 128.124V129.972Z" fill="white"/>
<path d="M275.066 153.024C274.767 153.024 274.618 152.878 274.618 152.584V128.08C274.618 127.787 274.767 127.64 275.066 127.64H282.681C285.041 127.64 286.907 128.271 288.281 129.532C289.685 130.793 290.387 132.494 290.387 134.635V146.029C290.387 148.17 289.685 149.871 288.281 151.133C286.907 152.394 285.041 153.024 282.681 153.024H275.066ZM277.798 150.121C277.798 150.238 277.858 150.297 277.977 150.297H282.771C284.115 150.267 285.175 149.857 285.952 149.065C286.758 148.244 287.176 147.129 287.206 145.721V134.943C287.206 133.565 286.803 132.465 285.996 131.644C285.19 130.822 284.1 130.412 282.726 130.412H277.977C277.858 130.412 277.798 130.47 277.798 130.588V150.121Z" fill="white"/>
<path d="M296.109 153.024C295.81 153.024 295.661 152.878 295.661 152.584V128.124C295.661 127.831 295.81 127.684 296.109 127.684H298.393C298.692 127.684 298.841 127.831 298.841 128.124V152.584C298.841 152.878 298.692 153.024 298.393 153.024H296.109Z" fill="white"/>
<path d="M312.282 153.332C309.863 153.332 307.922 152.628 306.459 151.221C304.995 149.813 304.263 147.906 304.263 145.501V135.119C304.263 132.714 304.98 130.822 306.414 129.444C307.877 128.036 309.833 127.332 312.282 127.332C314.731 127.332 316.673 128.022 318.106 129.4C319.57 130.778 320.301 132.655 320.301 135.031V135.251C320.301 135.398 320.257 135.515 320.167 135.603C320.077 135.691 319.973 135.735 319.853 135.735L317.569 135.823C317.27 135.823 317.121 135.691 317.121 135.427V134.943C317.121 133.418 316.658 132.23 315.732 131.38C314.836 130.529 313.626 130.104 312.103 130.104C310.7 130.104 309.565 130.544 308.699 131.424C307.862 132.304 307.444 133.477 307.444 134.943V145.721C307.444 147.217 307.877 148.405 308.743 149.285C309.639 150.165 310.819 150.605 312.282 150.605C313.746 150.605 314.911 150.165 315.777 149.285C316.673 148.405 317.121 147.217 317.121 145.721V145.282C317.121 144.988 317.27 144.842 317.569 144.842L319.853 144.974C320.152 144.974 320.301 145.12 320.301 145.413V145.633C320.301 148.009 319.57 149.886 318.106 151.265C316.643 152.643 314.702 153.332 312.282 153.332Z" fill="white"/>
<path d="M339.164 153.024C338.895 153.024 338.731 152.892 338.671 152.628L337.507 148.405C337.477 148.317 337.402 148.273 337.283 148.273H328.278C328.159 148.273 328.084 148.317 328.054 148.405L326.889 152.628C326.83 152.892 326.665 153.024 326.397 153.024H324.157C324.007 153.024 323.888 152.98 323.798 152.892C323.738 152.804 323.724 152.687 323.753 152.54L330.921 127.992C331.011 127.758 331.175 127.64 331.414 127.64H334.102C334.341 127.64 334.505 127.758 334.595 127.992L341.852 152.54L341.897 152.672C341.897 152.907 341.748 153.024 341.449 153.024H339.164ZM328.86 145.545C328.831 145.575 328.831 145.619 328.86 145.677C328.92 145.707 328.98 145.721 329.04 145.721H336.521C336.581 145.721 336.626 145.707 336.655 145.677C336.715 145.619 336.73 145.575 336.7 145.545L332.892 131.776C332.862 131.717 332.818 131.688 332.758 131.688C332.728 131.688 332.698 131.717 332.668 131.776L328.86 145.545Z" fill="white"/>
<path d="M346.77 153.024C346.471 153.024 346.322 152.878 346.322 152.584V128.08C346.322 127.787 346.471 127.64 346.77 127.64H349.055C349.353 127.64 349.503 127.787 349.503 128.08V150.121C349.503 150.238 349.562 150.297 349.682 150.297H360.747C361.046 150.297 361.195 150.443 361.195 150.737V152.584C361.195 152.878 361.046 153.024 360.747 153.024H346.77Z" fill="white"/>
<path d="M381.047 153.332C378.598 153.332 376.642 152.731 375.178 151.529C373.745 150.297 373.028 148.669 373.028 146.645V145.809C373.028 145.516 373.178 145.37 373.476 145.37H375.671C375.97 145.37 376.119 145.516 376.119 145.809V146.337C376.119 147.598 376.567 148.625 377.463 149.417C378.359 150.209 379.584 150.605 381.137 150.605C382.6 150.605 383.75 150.253 384.586 149.549C385.422 148.816 385.841 147.848 385.841 146.645C385.841 145.531 385.378 144.592 384.452 143.83C383.526 143.038 381.958 142.07 379.748 140.926C378.135 140.134 376.911 139.474 376.074 138.946C375.238 138.389 374.536 137.7 373.969 136.879C373.431 136.058 373.163 135.046 373.163 133.843C373.163 131.82 373.849 130.236 375.223 129.092C376.597 127.919 378.464 127.332 380.823 127.332C383.302 127.332 385.243 127.963 386.647 129.224C388.081 130.456 388.797 132.128 388.797 134.239V134.855C388.797 135.148 388.648 135.295 388.349 135.295H386.109C385.811 135.295 385.661 135.148 385.661 134.855V134.371C385.661 133.081 385.228 132.04 384.362 131.248C383.496 130.456 382.302 130.06 380.778 130.06C379.405 130.06 378.314 130.397 377.508 131.072C376.732 131.717 376.343 132.641 376.343 133.843C376.343 134.606 376.522 135.251 376.881 135.779C377.269 136.307 377.792 136.776 378.449 137.187C379.136 137.597 380.166 138.155 381.54 138.859C383.362 139.738 384.765 140.486 385.751 141.102C386.737 141.689 387.528 142.422 388.125 143.302C388.753 144.182 389.066 145.252 389.066 146.513C389.066 148.596 388.349 150.253 386.916 151.485C385.482 152.716 383.526 153.332 381.047 153.332Z" fill="white"/>
<path d="M401.76 153.332C399.311 153.332 397.34 152.599 395.847 151.133C394.383 149.666 393.652 147.672 393.652 145.15V128.124C393.652 127.831 393.801 127.684 394.1 127.684H396.384C396.683 127.684 396.832 127.831 396.832 128.124V145.326C396.832 146.939 397.28 148.229 398.176 149.197C399.072 150.135 400.267 150.605 401.76 150.605C403.254 150.605 404.433 150.135 405.299 149.197C406.195 148.229 406.643 146.939 406.643 145.326V128.124C406.643 127.831 406.793 127.684 407.091 127.684H409.376C409.675 127.684 409.824 127.831 409.824 128.124V145.15C409.824 147.672 409.092 149.666 407.629 151.133C406.165 152.599 404.209 153.332 401.76 153.332Z" fill="white"/>
<path d="M424.309 127.596C426.429 127.596 428.147 128.271 429.461 129.62C430.775 130.94 431.432 132.685 431.432 134.855C431.432 136.967 430.775 138.683 429.461 140.002C428.147 141.293 426.429 141.938 424.309 141.938H418.798C418.679 141.938 418.619 141.997 418.619 142.114V152.584C418.619 152.878 418.47 153.024 418.171 153.024H415.887C415.588 153.024 415.439 152.878 415.439 152.584V128.036C415.439 127.743 415.588 127.596 415.887 127.596H424.309ZM423.95 139.386C425.235 139.386 426.28 138.976 427.086 138.155C427.893 137.333 428.296 136.248 428.296 134.899C428.296 133.521 427.893 132.421 427.086 131.6C426.28 130.749 425.235 130.324 423.95 130.324H418.798C418.679 130.324 418.619 130.382 418.619 130.5V139.21C418.619 139.328 418.679 139.386 418.798 139.386H423.95Z" fill="white"/>
<path d="M444.389 127.596C446.51 127.596 448.227 128.271 449.541 129.62C450.855 130.94 451.512 132.685 451.512 134.855C451.512 136.967 450.855 138.683 449.541 140.002C448.227 141.293 446.51 141.938 444.389 141.938H438.879C438.76 141.938 438.7 141.997 438.7 142.114V152.584C438.7 152.878 438.551 153.024 438.252 153.024H435.967C435.669 153.024 435.519 152.878 435.519 152.584V128.036C435.519 127.743 435.669 127.596 435.967 127.596H444.389ZM444.031 139.386C445.315 139.386 446.361 138.976 447.167 138.155C447.973 137.333 448.377 136.248 448.377 134.899C448.377 133.521 447.973 132.421 447.167 131.6C446.361 130.749 445.315 130.324 444.031 130.324H438.879C438.76 130.324 438.7 130.382 438.7 130.5V139.21C438.7 139.328 438.76 139.386 438.879 139.386H444.031Z" fill="white"/>
<path d="M456.317 153.024C456.018 153.024 455.869 152.878 455.869 152.584V128.08C455.869 127.787 456.018 127.64 456.317 127.64H458.602C458.9 127.64 459.049 127.787 459.049 128.08V150.121C459.049 150.238 459.109 150.297 459.229 150.297H470.294C470.593 150.297 470.742 150.443 470.742 150.737V152.584C470.742 152.878 470.593 153.024 470.294 153.024H456.317Z" fill="white"/>
<path d="M475.085 153.024C474.786 153.024 474.637 152.878 474.637 152.584V128.124C474.637 127.831 474.786 127.684 475.085 127.684H477.37C477.668 127.684 477.818 127.831 477.818 128.124V152.584C477.818 152.878 477.668 153.024 477.37 153.024H475.085Z" fill="white"/>
<path d="M499.099 129.972C499.099 130.265 498.949 130.412 498.651 130.412H487.272C487.152 130.412 487.092 130.47 487.092 130.588V138.727C487.092 138.844 487.152 138.902 487.272 138.902H494.798C495.097 138.902 495.246 139.049 495.246 139.342V141.234C495.246 141.527 495.097 141.674 494.798 141.674H487.272C487.152 141.674 487.092 141.733 487.092 141.85V150.121C487.092 150.238 487.152 150.297 487.272 150.297H498.651C498.949 150.297 499.099 150.443 499.099 150.737V152.584C499.099 152.878 498.949 153.024 498.651 153.024H484.36C484.061 153.024 483.912 152.878 483.912 152.584V128.124C483.912 127.831 484.061 127.684 484.36 127.684H498.651C498.949 127.684 499.099 127.831 499.099 128.124V129.972Z" fill="white"/>
<path d="M510.981 153.332C508.532 153.332 506.576 152.731 505.112 151.529C503.679 150.297 502.962 148.669 502.962 146.645V145.809C502.962 145.516 503.111 145.37 503.41 145.37H505.605C505.904 145.37 506.053 145.516 506.053 145.809V146.337C506.053 147.598 506.501 148.625 507.397 149.417C508.293 150.209 509.518 150.605 511.071 150.605C512.534 150.605 513.684 150.253 514.52 149.549C515.356 148.816 515.774 147.848 515.774 146.645C515.774 145.531 515.312 144.592 514.386 143.83C513.46 143.038 511.892 142.07 509.682 140.926C508.069 140.134 506.845 139.474 506.008 138.946C505.172 138.389 504.47 137.7 503.903 136.879C503.365 136.058 503.096 135.046 503.096 133.843C503.096 131.82 503.783 130.236 505.157 129.092C506.531 127.919 508.398 127.332 510.757 127.332C513.236 127.332 515.177 127.963 516.581 129.224C518.014 130.456 518.731 132.128 518.731 134.239V134.855C518.731 135.148 518.582 135.295 518.283 135.295H516.043C515.745 135.295 515.595 135.148 515.595 134.855V134.371C515.595 133.081 515.162 132.04 514.296 131.248C513.43 130.456 512.235 130.06 510.712 130.06C509.338 130.06 508.248 130.397 507.442 131.072C506.665 131.717 506.277 132.641 506.277 133.843C506.277 134.606 506.456 135.251 506.815 135.779C507.203 136.307 507.726 136.776 508.383 137.187C509.07 137.597 510.1 138.155 511.474 138.859C513.296 139.738 514.699 140.486 515.685 141.102C516.671 141.689 517.462 142.422 518.059 143.302C518.686 144.182 519 145.252 519 146.513C519 148.596 518.283 150.253 516.85 151.485C515.416 152.716 513.46 153.332 510.981 153.332Z" fill="white"/>
</svg>
