<svg width="132" height="18" viewBox="0 0 132 18" fill="none" xmlns="http://www.w3.org/2000/svg">
<path d="M13.9193 17.7391L3.60968 7.2V17.6087H0V0H1.29845L11.6081 10.6957V0.130435H15.2178V17.7391H13.9193Z" fill="white"/>
<path d="M25.8391 18C24.8696 18 23.9607 17.8348 23.1123 17.5043C22.264 17.1565 21.5109 16.6783 20.853 16.0696C20.2125 15.4609 19.7104 14.7391 19.3468 13.9043C18.9833 13.0696 18.8015 12.1565 18.8015 11.1652C18.8015 9.87826 19.0872 8.70435 19.6585 7.64348C20.2298 6.56522 21.0175 5.70435 22.0216 5.06087C23.0258 4.41739 24.1684 4.09565 25.4495 4.09565C26.7307 4.09565 27.83 4.37391 28.7476 4.93044C29.6825 5.48696 30.3923 6.26087 30.877 7.25217C31.3791 8.22609 31.6301 9.35652 31.6301 10.6435V12.0522L23.0171 12.0435C23.0171 12.0435 22.6478 12.0435 22.6478 10.9304C22.6478 10.1884 23.0171 9.81739 23.0171 9.81739L28.4619 9.78261C28.4273 9.13913 28.2542 8.61739 27.9426 8.21739C27.6309 7.8 27.25 7.49565 26.7999 7.30435C26.3498 7.09565 25.8737 6.9913 25.3716 6.9913C24.6964 6.9913 24.1078 7.16522 23.6057 7.51304C23.121 7.86087 22.7401 8.34783 22.4631 8.97391C22.1861 9.6 22.0476 10.3304 22.0476 11.1652C22.0476 11.913 22.2121 12.5739 22.541 13.1478C22.87 13.7217 23.3287 14.1739 23.9174 14.5043C24.5233 14.8348 25.2072 15 25.9689 15C26.9384 15 27.8041 14.8087 28.5658 14.4261C29.3449 14.0435 29.9595 13.6522 30.4096 13.2522V16.3304C30.1499 16.5739 29.7863 16.8261 29.3189 17.087C28.8515 17.3478 28.3148 17.5652 27.7088 17.7391C27.1202 17.913 26.497 18 25.8391 18Z" fill="white"/>
<path d="M37.3952 17.6087L32.8766 4.43478H36.4604L38.8755 12.2348L41.7061 4.43478H44.0692L46.8739 12.2348L49.289 4.43478H52.8727L48.3282 17.6087H45.939L42.8747 9.07826L39.8103 17.6087H37.3952Z" fill="white"/>
<path d="M55.4696 17.6087V0.130435H62.663C63.4767 0.130435 64.2731 0.278261 65.0521 0.573913C65.8312 0.869565 66.5324 1.30435 67.1556 1.87826C67.7962 2.43478 68.2982 3.12174 68.6618 3.93913C69.0427 4.73913 69.2331 5.66087 69.2331 6.70435C69.2331 7.97391 68.9302 9.08696 68.3242 10.0435C67.7356 10.9826 66.9479 11.7217 65.961 12.2609C64.9742 12.7826 63.9008 13.0435 62.7409 13.0435C61.806 13.0435 60.9923 12.9565 60.2998 12.7826C60.2998 12.7826 60.32 12.7855 59.9507 12.7855V9.44638C59.9507 9.44638 59.9507 9.44638 60.144 9.70435C60.7846 9.86087 61.4511 9.93913 62.1436 9.93913C63.1824 9.93913 64.0047 9.65217 64.6107 9.07826C65.2339 8.48696 65.5455 7.69565 65.5455 6.70435C65.5455 5.9913 65.3811 5.4087 65.0521 4.95652C64.7405 4.48696 64.3163 4.13043 63.7797 3.88696C63.2603 3.64348 62.689 3.52174 62.0657 3.52174H59.0793V17.6087H55.4696Z" fill="white"/>
<path d="M78.4002 18C77.448 18 76.5477 17.8261 75.6994 17.4783C74.8684 17.113 74.1239 16.6174 73.4661 15.9913C72.8082 15.3652 72.2975 14.6348 71.9339 13.8C71.5703 12.9478 71.3885 12.0348 71.3885 11.0609C71.3885 10.087 71.5703 9.18261 71.9339 8.34783C72.2975 7.49565 72.8082 6.75652 73.4661 6.13043C74.1239 5.48696 74.8684 4.9913 75.6994 4.64348C76.5477 4.27826 77.448 4.09565 78.4002 4.09565C79.3523 4.09565 80.2526 4.27826 81.1009 4.64348C81.9492 4.9913 82.6937 5.48696 83.3343 6.13043C83.9921 6.75652 84.5029 7.49565 84.8664 8.34783C85.2473 9.18261 85.4377 10.087 85.4377 11.0609C85.4377 12.0348 85.2473 12.9478 84.8664 13.8C84.5029 14.6348 83.9921 15.3652 83.3343 15.9913C82.6937 16.6174 81.9492 17.113 81.1009 17.4783C80.2526 17.8261 79.3523 18 78.4002 18ZM78.4002 14.7913C79.0407 14.7913 79.6207 14.6522 80.1401 14.3739C80.6768 14.0783 81.1096 13.6522 81.4385 13.0957C81.7675 12.5217 81.9319 11.8435 81.9319 11.0609C81.9319 10.2435 81.7675 9.55652 81.4385 9C81.1096 8.44348 80.6768 8.02609 80.1401 7.74783C79.6207 7.45217 79.0407 7.30435 78.4002 7.30435C77.7942 7.30435 77.2142 7.45217 76.6602 7.74783C76.1235 8.02609 75.6907 8.44348 75.3618 9C75.0502 9.55652 74.8943 10.2435 74.8943 11.0609C74.8943 11.8435 75.0502 12.5217 75.3618 13.0957C75.6907 13.6522 76.1235 14.0783 76.6602 14.3739C77.2142 14.6522 77.7942 14.7913 78.4002 14.7913Z" fill="white"/>
<path d="M91.047 17.6087L86.5284 4.43478H90.1121L92.5272 12.2348L95.3579 4.43478H97.721L100.526 12.2348L102.941 4.43478H106.524L101.98 17.6087H99.5908L96.5265 9.07826L93.4621 17.6087H91.047Z" fill="white"/>
<path d="M114.938 18C113.969 18 113.06 17.8348 112.212 17.5043C111.363 17.1565 110.61 16.6783 109.952 16.0696C109.312 15.4609 108.81 14.7391 108.446 13.9043C108.083 13.0696 107.901 12.1565 107.901 11.1652C107.901 9.87826 108.187 8.70435 108.758 7.64348C109.329 6.56522 110.117 5.70435 111.121 5.06087C112.125 4.41739 113.268 4.09565 114.549 4.09565C115.83 4.09565 116.929 4.37391 117.847 4.93044C118.782 5.48696 119.492 6.26087 119.976 7.25217C120.478 8.22609 120.729 9.35652 120.729 10.6435V12.0522H112.027C112.027 12.0522 111.658 12.0435 111.658 10.9304C111.658 9.78261 112.027 9.78261 112.027 9.78261H117.561C117.527 9.13913 117.354 8.61739 117.042 8.21739C116.73 7.8 116.349 7.49565 115.899 7.30435C115.449 7.09565 114.973 6.9913 114.471 6.9913C113.796 6.9913 113.207 7.16522 112.705 7.51304C112.22 7.86087 111.839 8.34783 111.562 8.97391C111.285 9.6 111.147 10.3304 111.147 11.1652C111.147 11.913 111.311 12.5739 111.64 13.1478C111.969 13.7217 112.428 14.1739 113.017 14.5043C113.623 14.8348 114.307 15 115.068 15C116.038 15 116.903 14.8087 117.665 14.4261C118.444 14.0435 119.059 13.6522 119.509 13.2522V16.3304C119.249 16.5739 118.886 16.8261 118.418 17.087C117.951 17.3478 117.414 17.5652 116.808 17.7391C116.22 17.913 115.596 18 114.938 18Z" fill="white"/>
<path d="M123.742 17.6087V4.43478H127.04V17.6087H123.742ZM127.79 10.0174V6.67826C128.24 5.89565 128.018 5.47826 128.624 4.95652C129.247 4.43478 129.948 4.17391 130.728 4.17391C131.212 4.17391 131.636 4.25217 132 4.4087V8.13913C131.74 7.98261 131.463 7.86957 131.169 7.8C130.892 7.71304 130.589 7.66957 130.26 7.66957C129.516 7.66957 128.884 7.92174 128.364 8.42609C127.862 8.91304 128.171 9.28696 127.79 10.0174Z" fill="white"/>
</svg>
