<svg width="352" height="126" viewBox="0 0 352 126" fill="none" xmlns="http://www.w3.org/2000/svg">
<path d="M148.234 26.1301L133.41 96.7698L148.455 94.5554L156.641 55.5817L164.606 92.5624L179.429 90.7909L194.695 20.3726L179.872 22.1441L171.907 58.239L164.163 24.1371L148.234 26.1301Z" fill="white"/>
<path d="M201.554 19.2654L186.067 90.348L202.217 87.9121L208.855 58.239L219.696 86.1406L237.395 83.4833L223.457 48.0527L250.67 13.2865L231.422 15.7223L212.395 41.6309L217.483 17.051L201.554 19.2654Z" fill="white"/>
<path d="M26.3281 30.3374L0 119.578L23.4519 111.606L47.3463 32.109L79.4268 27.2373L38.2753 64.2179L73.4532 126L89.604 112.714L65.7096 65.3251L97.1263 36.7592L105.312 3.32162L2.87618 21.0369L26.3281 30.3374Z" fill="white"/>
<path fill-rule="evenodd" clip-rule="evenodd" d="M132.087 96.7417L131.891 96.768L116.846 98.761L116.596 98.7939V86.6133L101.26 88.5587L95.0569 102.306H90.5746L90.5132 102.185L84.3184 90.0054L84.27 89.9107L84.314 89.8138L111.136 30.5762L130.529 28.0936L132.087 96.7417ZM106.524 73.9843L117.038 73.2827V48.9385L116.612 48.8559L106.524 73.9843Z" fill="white"/>
<path d="M239.608 83.9262L255.095 12.6221L300.008 6.64323L296.468 22.3656L269.255 26.3515L266.378 38.9736L292.264 35.4306L288.06 50.71L263.06 53.5888L260.184 65.1037L289.83 61.7821L286.29 77.9473L239.608 83.9262Z" fill="white"/>
<path d="M291.6 77.283L307.087 5.97891L352 0L348.46 15.7223L321.247 19.7083L318.371 32.3304L344.256 28.7873L340.053 44.0668L315.052 46.9455L312.176 58.4605L341.823 55.1388L338.283 71.304L291.6 77.283Z" fill="white"/>
<path d="M99.3388 110.721L336.513 80.6046L143.366 124.228L99.3388 110.721Z" fill="white"/>
</svg>
