<svg width="92" height="24" viewBox="0 0 92 24" fill="none" xmlns="http://www.w3.org/2000/svg">
<path d="M7.13466 23.6566C7.13466 23.6566 7.12086 9.23354 7.13466 4.76926C7.14329 1.9761 0 3.53574 0 3.53574V0.304971H17.8118V3.53574C17.8118 3.53574 10.7103 1.98888 10.7103 4.76926C10.7103 9.23354 10.7103 23.6566 10.7103 23.6566H7.13466Z" fill="#0C0427"/>
<path d="M19.881 23.6566C19.881 14.5372 19.881 9.42436 19.881 0.304971H34.3655V3.73901H23.5201V7.85992H33.6178V11.294H23.5201V20.4259H34.3655V23.6566H19.881Z" fill="#0C0427"/>
<path d="M45.6606 24C42.8355 24 40.5952 23.2088 38.9398 21.6264C37.2845 20.022 36.4568 17.7143 36.4568 14.7033V9.2967C36.4568 6.28572 37.2845 3.98901 38.9398 2.40659C40.5952 0.802198 42.8355 0 45.6606 0C48.4417 0 50.5826 0.769231 52.0835 2.30769C53.6064 3.84615 54.3679 5.45602 54.3679 7.66211V7.85992H50.8254V7.56321C50.8254 6.00277 50.0404 5.01614 49.5397 4.4258C48.701 3.43679 47.4043 3.1978 45.6606 3.1978C43.8949 3.1978 42.5154 3.73626 41.5222 4.81319C40.529 5.86813 40.0324 7.34066 40.0324 9.23077V14.7692C40.0324 16.6374 40.529 18.1099 41.5222 19.1868C42.5154 20.2637 43.8949 20.8022 45.6606 20.8022C47.4043 20.8022 48.6955 20.3077 49.5342 19.3187C50.395 18.3077 50.8254 17.033 50.8254 15.4945V14.9341H54.3679V15.3956C54.3679 18.0549 53.6064 20.1538 52.0835 21.6923C50.5826 23.2308 48.4417 24 45.6606 24Z" fill="#0C0427"/>
<path d="M56.4371 23.6566V0.304948H70.2319V3.73901H60.0127V7.85992H69.5421V11.294H60.0127V23.6566H56.4371Z" fill="#0C0427"/>
<path d="M80.3462 23.6566V15.0082L72.3011 0.304924H76.3402L81.9022 10.7555H82.3988L87.9609 0.304924H92L83.9549 15.0082V23.6566H80.3462Z" fill="#0C0427"/>
</svg>
